<svg xmlns="http://www.w3.org/2000/svg" viewBox="0 0 502 502" fill="#ffffff"><path d="M492 56.375H10c-5.522 0-10 4.477-10 10v369.25c0 5.523 4.478 10 10 10h482c5.522 0 10-4.477 10-10V66.375c0-5.523-4.478-10-10-10zm-371.5 369.25H20v-53.896h100.5v53.896zm0-73.897H20v-53.896h100.5v53.896zm0-73.896H20v-53.896h100.5v53.896zm0-73.897H20v-53.664h100.5v53.664zM241 425.625H140.5v-53.896H241v53.896zm0-73.897H140.5v-53.896H241v53.896zm0-73.896H140.5v-53.896H241v53.896zm0-73.897H140.5v-53.664H241v53.664zm120.5 221.69H261v-53.896h100.5v53.896zm0-73.897H261v-53.896h100.5v53.896zm0-73.896H261v-53.896h100.5v53.896zm0-73.897H261v-53.664h100.5v53.664zM482 425.625H381.5v-53.896H482v53.896zm0-73.897H381.5v-53.896H482v53.896zm0-73.896H381.5v-53.896H482v53.896zm0-73.896H381.5v-53.664H482v53.664zm0-73.897H20V76.375h462v53.664z"/><path d="M209 107.625h192c5.522 0 10-4.477 10-10s-4.478-10-10-10H209c-5.522 0-10 4.477-10 10s4.478 10 10 10zM436 107.625h22c5.522 0 10-4.477 10-10s-4.478-10-10-10h-22c-5.522 0-10 4.477-10 10s4.478 10 10 10z"/></svg>
