<?xml version="1.0" encoding="utf-8"?>
<!-- Generator: Adobe Illustrator 23.0.3, SVG Export Plug-In . SVG Version: 6.00 Build 0)  -->
<svg version="1.1" id="Слой_1" xmlns="http://www.w3.org/2000/svg" xmlns:xlink="http://www.w3.org/1999/xlink" x="0px" y="0px"
	 viewBox="0 0 143.8 29.8" enable-background="new 0 0 143.8 29.8" xml:space="preserve">
<path fill-rule="evenodd" clip-rule="evenodd" fill="#D9D9DB" d="M12,4l2.6,7c0.4,1.1-0.2,2.1-1.4,2.1H1.7c-0.6,0-1.9-0.6-1.3-2.2
	L3,4C4.6-0.5,10.3-0.6,12,4z"/>
<path fill-rule="evenodd" clip-rule="evenodd" fill="#C1C0C3" d="M13.3,13.1H1.8c-1,0-1.9-0.8-1.3-2.2L2,6.5c1.1-3.1,5.7-3,6.9,0.1
	l1.6,4.4C10.9,12.3,12,13.1,13.3,13.1z"/>
<path fill-rule="evenodd" clip-rule="evenodd" fill="#42BBD7" d="M23.3,16.1c3.8,0,6.9,3.1,6.9,6.9s-3.1,6.9-6.9,6.9
	c-3.8,0-6.9-3.1-6.9-6.9C16.4,19.1,19.5,16.1,23.3,16.1z"/>
<path fill-rule="evenodd" clip-rule="evenodd" fill="#8ACFE1" d="M23.3,18.6c2.4,0,4.3,1.9,4.3,4.3s-1.9,4.3-4.3,4.3
	c-2.4,0-4.3-1.9-4.3-4.3S20.9,18.6,23.3,18.6z"/>
<path fill-rule="evenodd" clip-rule="evenodd" fill="#F38E48" d="M26.1,1c3.4,1.7,4.8,5.6,3.1,8.9c-1.7,3.4-6.1,4.9-9.8,3.3
	l-0.1-0.1c-1.1-0.7-1.4-1.6-1-2.7c0.1-0.2,0.2-0.4,0.3-0.6c0.7-1.3,0.5-2.4-1-3.3c-1.9-1.2-2.1-2.7-0.6-4.3c1.8-1.9,4.7-2.6,7.5-1.8
	C25.1,0.5,25.6,0.7,26.1,1z"/>
<path fill-rule="evenodd" clip-rule="evenodd" fill="#F8B454" d="M18.5,9.9c1-1.2,3.2-1.2,4.6-1.8c1.1-0.5,2.1-1.3,2.7-2.4
	c1-2,0.1-4.4-2.1-5.4c-0.5-0.2-1-0.3-1.5-0.4h0c0.8,0,1.6,0.1,2.3,0.3c0.5,0.2,1,0.4,1.5,0.6c3.4,1.7,4.8,5.6,3.1,8.9
	c-1.7,3.4-6.1,4.9-9.8,3.3l-0.1-0.1c-1.1-0.7-1.4-1.6-1-2.7C18.4,10.2,18.5,10.1,18.5,9.9z"/>
<path fill-rule="evenodd" clip-rule="evenodd" fill="#98C75A" d="M1.7,20.9c-0.9,0-1.7-1-1.7-2.1c0-1.1,0.7-2,1.7-2.1h8.2
	c5.4,0,5.3,8.1,0.2,8.3l2.3,0c1,0,1.7,0.9,1.7,2.1c0,1.1-0.8,2.1-1.7,2.1H4c-5.3,0-5.3-8.3,0-8.3L1.7,20.9z"/>
<path fill-rule="evenodd" clip-rule="evenodd" fill="#69B957" d="M10.7,24.9L10.7,24.9L10.7,24.9z M12.2,22.9L12.2,22.9
	c0,1-0.5,1.8-1.5,2.1v-4C11.6,21.1,12.2,22,12.2,22.9z M10.6,24.9L10.6,24.9L10.6,24.9z M10.6,20.9v4l-0.1,0c-0.1,0-0.2,0-0.3,0H4.1
	c-1.2,0-1.9-0.9-2-1.8v-0.5c0.1-0.7,0.5-1.3,1.1-1.6c0.3-0.1,0.7-0.2,1-0.2h6C10.4,20.9,10.5,20.9,10.6,20.9L10.6,20.9z"/>
<path fill-rule="evenodd" clip-rule="evenodd" fill="#3B4345" d="M44.8,15.8l6.7,7.9c0.1,0.1,0.1,0.2,0.1,0.3c0,0.1-0.1,0.2-0.3,0.2
	h-1.7c-0.2,0-0.4-0.1-0.5-0.2l-6.2-7.6v7.4c0,0.1,0,0.2-0.1,0.3c-0.1,0.1-0.2,0.1-0.3,0.1h-1.2c-0.1,0-0.2,0-0.3-0.1
	c-0.1-0.1-0.1-0.2-0.1-0.3V8.3c0-0.1,0-0.2,0.1-0.3c0.1-0.1,0.2-0.1,0.3-0.1h1.2c0.1,0,0.2,0,0.3,0.1c0.1,0.1,0.1,0.2,0.1,0.3v7.1
	l6.4-7.4c0.1-0.1,0.3-0.2,0.4-0.2h1.6c0.2,0,0.3,0.1,0.3,0.2c0,0.1,0,0.2-0.1,0.2L44.8,15.8L44.8,15.8z M64.9,23.6
	c0,0.4-0.3,0.6-0.6,0.6h-1.4c-0.3,0-0.6-0.1-0.7-0.4l-6.8-13c0,0,0-0.1-0.1-0.1c0,0,0,0,0,0.1v12.9c0,0.1,0,0.2-0.1,0.3
	c-0.1,0.1-0.2,0.1-0.3,0.1h-1.1c-0.3,0-0.4-0.1-0.4-0.3V8.5c0-0.2,0.1-0.3,0.2-0.4c0.1-0.1,0.3-0.2,0.5-0.2h1.2c0.2,0,0.4,0,0.6,0.1
	C55.9,8,56,8.2,56.1,8.3l6.8,13c0,0,0,0,0-0.1V8.3c0-0.1,0-0.2,0.1-0.3c0.1-0.1,0.2-0.1,0.3-0.1h1.2c0.3,0,0.4,0.1,0.4,0.4
	L64.9,23.6L64.9,23.6z M78.1,9.2c0,0.2-0.1,0.4-0.4,0.4h-4.3v14.2c0,0.1,0,0.2-0.1,0.3c-0.1,0.1-0.2,0.1-0.3,0.1h-1.2
	c-0.1,0-0.2,0-0.3-0.1c-0.1-0.1-0.1-0.2-0.1-0.3V9.6h-4.3c-0.3,0-0.4-0.1-0.4-0.4v-1c0-0.1,0-0.2,0.1-0.3c0.1-0.1,0.2-0.1,0.3-0.1
	h10.6c0.3,0,0.4,0.1,0.4,0.4L78.1,9.2z"/>
<path fill="#3B4345" d="M112.5,18.9v-1.7h2.4l-1.5-5.6c-0.3-1.1-0.5-1.7-0.5-1.8c0-0.1,0-0.1-0.1-0.1c0,0-0.1-0.1-0.1-0.1
	c-0.1,0-0.1,0-0.2,0V7.7c1.1-0.1,2,0.6,2.2,1.7l4.1,14.4c0,0,0,0.1,0,0.2c0,0.2-0.1,0.4-0.4,0.4h-1.3c-0.1,0-0.2,0-0.2-0.1
	c-0.1-0.3-0.3-0.5-0.3-0.8l-1.3-4.5H112.5z M143.8,9.2c0,0.2-0.1,0.4-0.4,0.4h-4.3v14.2c0,0.1,0,0.2-0.1,0.3
	c-0.1,0.1-0.2,0.1-0.3,0.1h-1.2c-0.1,0-0.2,0-0.3-0.1c-0.1-0.1-0.1-0.2-0.1-0.3V9.6h-4.3c-0.3,0-0.4-0.1-0.4-0.4v-1
	c0-0.1,0-0.2,0.1-0.3c0.1-0.1,0.2-0.1,0.3-0.1h10.6c0.3,0,0.4,0.1,0.4,0.4L143.8,9.2L143.8,9.2z M129.6,9.6
	c-1.3-0.1-2.6-0.1-3.8-0.1s-2,0.2-2.5,0.5c-0.5,0.3-0.7,0.9-0.7,1.6c0,0.5,0.2,1,0.5,1.3c0.5,0.5,1,0.9,1.6,1.2l2.2,1.3
	c1,0.5,1.9,1.3,2.7,2.1c0.5,0.7,0.8,1.5,0.8,2.4c0,0.8-0.2,1.7-0.6,2.4c-0.4,0.7-1.1,1.2-1.8,1.5c-1,0.4-2,0.5-3,0.5
	c-0.9,0-1.8,0-2.6-0.2c-0.5,0-0.9-0.1-1.3-0.2c-0.1-0.1-0.1-0.2-0.1-0.3v-0.9c0-0.2,0.1-0.4,0.4-0.4h0.1c1,0.1,2.2,0.1,3.6,0.1
	c1.1,0,2-0.2,2.5-0.6s0.8-1.1,0.8-2c0-0.5-0.2-1-0.5-1.4c-0.6-0.6-1.3-1.1-2.1-1.6l-2.4-1.4c-0.8-0.5-1.6-1.1-2.2-1.8
	c-0.5-0.6-0.7-1.4-0.7-2.2c0-2.6,1.8-3.9,5.3-3.9c0.7,0,1.5,0,2.4,0.1c0.5,0,1.1,0.1,1.6,0.2c0.1,0.1,0.2,0.2,0.2,0.3v0.9
	C130,9.5,129.9,9.7,129.6,9.6L129.6,9.6z M95,12.8c0,3-1.7,4.7-5.2,4.9V16c0.8,0,1.6-0.3,2.2-0.7c0.6-0.5,1-1.3,1-2.5v-0.3
	c0-1.1-0.3-1.9-1-2.4c-0.7-0.4-1.4-0.7-2.2-0.7V7.7C93.2,8,95,9.6,95,12.5V12.8L95,12.8z M112.5,7.7v1.7c-0.1,0-0.1,0-0.2,0.1
	c-0.1,0-0.1,0.1-0.1,0.1c0,0.1-0.2,0.5-0.4,1.3l-1.7,6.2h2.4v1.7h-2.9l-1.4,5.1c0,0.1-0.1,0.2-0.2,0.2c-0.1,0-0.1,0.1-0.2,0.1h-1.3
	c-0.2,0-0.4-0.1-0.4-0.4c0-0.1,0-0.1,0-0.2l4.1-14.4C110.4,8.3,111.4,7.6,112.5,7.7L112.5,7.7z M104.2,24.3h-2.6c-1.8,0-3-0.3-3.7-1
	c-0.7-0.7-1-1.7-1-3.1v-12c0-0.1,0-0.2,0.1-0.3c0.1-0.1,0.2-0.1,0.3-0.1h1.1c0.2,0,0.4,0.2,0.4,0.4v12c0,0.9,0.2,1.5,0.5,1.8
	c0.4,0.3,1.1,0.5,2.2,0.5h3.2c0.4,0,0.5,0.3,0.4,0.7l-0.2,0.5C105,24.1,104.8,24.3,104.2,24.3z M89.8,17.7c-0.3,0-0.6,0-1,0
	c-0.5,0-1.3,0-2.2-0.1v6.2c0,0.1,0,0.2-0.1,0.3c-0.1,0.1-0.2,0.1-0.3,0.1H85c-0.1,0-0.2,0-0.3-0.1c-0.1-0.1-0.1-0.2-0.1-0.3V8.4
	c0-0.2,0.1-0.3,0.2-0.4c0.1-0.1,0.7-0.2,1.6-0.2c1,0,1.8-0.1,2.4-0.1c0.3,0,0.7,0,1,0v1.7c-0.3,0-0.6,0-1,0c-0.7,0-1.5,0-2.2,0.1V16
	c1.4,0.1,2.1,0.1,2.2,0.1c0.4,0,0.7,0,1,0L89.8,17.7z"/>
</svg>
