<svg xmlns="http://www.w3.org/2000/svg" viewBox="0 0 286.67 201.08" width="103" height="73"><path d="M130.43 16.71l10.71 29.44c1.65 4.55-.9 8.63-6 8.63h-47.8c-2.67 0-8-2.33-5.46-9.23l10.74-29c6.96-18.77 30.83-18.97 37.81.16z" fill-rule="evenodd" fill="#d9d9db"/><path d="M135.89 54.78H87.5c-4 0-7.83-3.27-5.62-9.22l6.77-18.28c4.76-12.84 24-12.77 28.79.61l6.58 18.53c1.79 5.03 6.61 8.68 11.87 8.36z" fill="#c1c0c3" fill-rule="evenodd"/><path d="M177.71 67.29a28.81 28.81 0 1 1-28.82 28.81 28.82 28.82 0 0 1 28.82-28.81z" fill="#42bbd7" fill-rule="evenodd"/><path d="M177.71 77.92a18.18 18.18 0 1 1-18.18 18.18 18.18 18.18 0 0 1 18.18-18.18z" fill="#8acfe1" fill-rule="evenodd"/><path d="M189.52 4.03c14.14 7.22 20 23.55 13.06 37.34-7.22 14.35-25.56 20.53-41 13.81l-.58-.27c-4.59-3.14-5.84-6.83-4-11.39a24.13 24.13 0 0 1 1.27-2.69c2.88-5.36 2-10.12-4-13.79-8.15-5-8.82-11.4-2.38-18.15 7.54-7.9 19.9-11 31.38-7.43a41.23 41.23 0 0 1 6.25 2.57z" fill="#f38e48" fill-rule="evenodd"/><path d="M157.89 41.58c4.12-5.08 13.28-5.06 19.41-7.47a22.38 22.38 0 0 0 11.21-9.9c4.28-8.49.35-18.61-8.77-22.59a19.14 19.14 0 0 0-6.25-1.56h-.05a32.93 32.93 0 0 1 9.85 1.45 41.23 41.23 0 0 1 6.25 2.57c14.14 7.22 20 23.55 13.06 37.34-7.22 14.35-25.56 20.53-41 13.81l-.58-.27c-4.59-3.14-5.84-6.83-4-11.39.23-.69.52-1.35.87-1.99z" fill="#f8b454" fill-rule="evenodd"/><path d="M87.09 87.42c-3.86-.19-6.94-4-6.94-8.68s3.08-8.5 6.94-8.69h34.49c22.82 0 22.34 33.78.8 34.79l9.45-.05c4 0 7.17 3.9 7.17 8.69s-3.21 8.69-7.17 8.7H96.97c-22.42 0-22.42-34.7 0-34.7z" fill="#98c75a" fill-rule="evenodd"/><path d="M125.07 104.51l-.34.06.34-.06zm6.08-8.56v.31c-.05 3.73-2.19 7.43-6.42 8.3V87.68c4.22.9 6.36 4.54 6.42 8.27zm-6.42 8.63l-.34.06.34-.06zm0-16.89v16.89l-.39.08c-.42.06-.85.11-1.28.15H97.31c-5.11 0-7.88-3.63-8.31-7.57v-2.16a8.23 8.23 0 0 1 4.59-6.78 18 18 0 0 1 4.38-.78h25.22a9.4 9.4 0 0 1 1.54.16z" fill="#69b957" fill-rule="evenodd"/><path d="M11.04 177.21l18.52 22.11a1.05 1.05 0 0 1 .29.75q0 .6-.81.6h-4.77a1.63 1.63 0 0 1-1.35-.6L5.58 178.98v20.46a1.28 1.28 0 0 1-.32.85 1 1 0 0 1-.79.38H1.11a1 1 0 0 1-.79-.36 1.23 1.23 0 0 1-.32-.87v-43.27a1.16 1.16 0 0 1 .33-.81 1.1 1.1 0 0 1 .84-.35H4.4a1.1 1.1 0 0 1 .83.34 1.14 1.14 0 0 1 .35.82v19.87l17.7-20.46a1.65 1.65 0 0 1 1.23-.57h4.38c.58 0 .87.22.87.68a1 1 0 0 1-.23.61l-18.52 20.91zm55.85 21.69a1.78 1.78 0 0 1-1.77 1.77h-3.81a2 2 0 0 1-2-1l-19-36.06c-.06-.12-.12-.19-.18-.19s-.07.07-.07.19v35.88a1.16 1.16 0 0 1-.32.82 1 1 0 0 1-.78.35h-3.19c-.73 0-1.1-.25-1.1-.75v-43.16a1.64 1.64 0 0 1 .51-1.23 1.71 1.71 0 0 1 1.26-.51h3.45a3.83 3.83 0 0 1 1.68.25 2.6 2.6 0 0 1 .84 1l19 36.07s.07-.06.07-.18v-36a1.23 1.23 0 0 1 .31-.81 1 1 0 0 1 .77-.35h3.27c.74 0 1.1.39 1.1 1.16v42.73zm36.81-40.08q0 1-1.17 1h-12v39.63a1.24 1.24 0 0 1-.32.85.92.92 0 0 1-.77.38h-3.39a1 1 0 0 1-.77-.36 1.24 1.24 0 0 1-.33-.87v-39.64h-12q-1.23 0-1.23-1v-2.71a1 1 0 0 1 .36-.78 1.28 1.28 0 0 1 .87-.32h29.55c.78 0 1.17.37 1.17 1.1z" fill="#3b4345" fill-rule="evenodd"/><path d="M199.33 185.58v-4.86h6.78l-4.29-15.57c-.88-3.14-1.34-4.78-1.38-4.89a1.36 1.36 0 0 0-.21-.39 1.29 1.29 0 0 0-.34-.29 1.13 1.13 0 0 0-.51-.11v-4.89a5.85 5.85 0 0 1 6.21 4.62l11.37 40.05a1 1 0 0 1 .06.42q0 1-1.05 1h-3.63a.87.87 0 0 1-.65-.26 7.48 7.48 0 0 1-.85-2.32l-3.56-12.51zm87.34-26.79q0 1-1.17 1h-12v39.63a1.24 1.24 0 0 1-.32.85.92.92 0 0 1-.77.38h-3.38a1 1 0 0 1-.78-.36 1.24 1.24 0 0 1-.33-.87V159.8h-12q-1.23 0-1.23-1v-2.71a1.06 1.06 0 0 1 .36-.78 1.28 1.28 0 0 1 .87-.32h29.55c.78 0 1.17.36 1.17 1.1v2.71zm-39.57 1.16c-3.61-.23-7.13-.36-10.57-.36s-5.7.44-7 1.32-2 2.39-2 4.51a5.17 5.17 0 0 0 1.5 3.67 22.74 22.74 0 0 0 4.58 3.41l6.25 3.75a27 27 0 0 1 7.45 5.93 10.36 10.36 0 0 1 2.21 6.61 12.55 12.55 0 0 1-1.71 6.65 10.73 10.73 0 0 1-5.09 4.2 21.6 21.6 0 0 1-8.38 1.42 57.13 57.13 0 0 1-7.32-.43 18 18 0 0 1-3.71-.67.92.92 0 0 1-.35-.85v-2.46c0-.66.35-1 1.06-1h.17q4.28.36 10.15.36c3.17 0 5.53-.56 7-1.68s2.29-3 2.29-5.55a5.67 5.67 0 0 0-1.46-3.87 28.24 28.24 0 0 0-5.89-4.38l-6.58-4a21.13 21.13 0 0 1-6-5.08 9.9 9.9 0 0 1-1.89-6q0-10.86 14.7-10.86c1.93 0 4.19.1 6.8.29a18.3 18.3 0 0 1 4.42.61 1 1 0 0 1 .52.87V159c0 .65-.35 1-1.06 1zm-96.49 8.74q0 12.62-14.46 13.68v-4.7a11.91 11.91 0 0 0 6.17-2q2.71-2.08 2.71-7v-.81c0-3-.91-5.21-2.75-6.55a12.16 12.16 0 0 0-6.13-1.92v-4.76q14.48 1 14.46 13.23v.81zm48.72-14.11v4.86a1.19 1.19 0 0 0-.56.14 1.36 1.36 0 0 0-.4.39c-.1.17-.45 1.33-1.05 3.52l-4.77 17.25h6.78v4.84h-7.95l-3.93 14.16a1.06 1.06 0 0 1-.49.69 1.26 1.26 0 0 1-.62.21h-3.64c-.69 0-1-.33-1-1a1.52 1.52 0 0 1 .06-.42l11.37-40a5.89 5.89 0 0 1 6.24-4.68zm-22.88 46.07h-7.29q-7.39 0-10.24-2.9t-2.84-8.53v-33.41a1.15 1.15 0 0 1 .36-.87 1.17 1.17 0 0 1 .87-.36h3.12a1.23 1.23 0 0 1 1.23 1.23v33.42q0 3.69 1.44 5c1 .9 3 1.35 6.12 1.35h9c1.14 0 1.46.79 1.17 1.81l-.44 1.49c-.41 1.36-1.06 1.77-2.5 1.77zm-40.3-18.26q-1.31.09-2.73.09-2.19 0-6.15-.3v17.25a1.24 1.24 0 0 1-.32.85 1 1 0 0 1-.79.38h-3.27a1 1 0 0 1-.79-.36 1.23 1.23 0 0 1-.32-.87v-42.85a1.58 1.58 0 0 1 .48-1.16c.32-.34 1.85-.58 4.57-.69s4.94-.18 6.62-.18q1.43 0 2.73.09v4.76c-.85-.07-1.76-.11-2.73-.11q-3 0-6.15.23v18q5.64.24 6.15.24c1 0 1.88 0 2.73-.11z" fill="#3b4345"/></svg>